<?xml version="1.0" standalone="no"?>
<!DOCTYPE svg PUBLIC "-//W3C//DTD SVG 20010904//EN"
 "http://www.w3.org/TR/2001/REC-SVG-20010904/DTD/svg10.dtd">
<svg version="1.0" xmlns="http://www.w3.org/2000/svg"
 width="1024.000000pt" height="1024.000000pt" viewBox="0 0 1024.000000 1024.000000"
 preserveAspectRatio="xMidYMid meet">
<metadata>
Created by potrace 1.16, written by Peter Selinger 2001-2019
</metadata>
<g transform="translate(0.000000,1024.000000) scale(0.100000,-0.100000)"
fill="#000000" stroke="none">
<path d="M6140 5857 c-72 -17 -110 -38 -150 -83 -51 -59 -72 -116 -72 -199 0
-182 138 -307 322 -292 165 14 265 122 264 287 0 201 -166 332 -364 287z m174
-125 c52 -36 78 -88 79 -160 0 -63 -16 -103 -60 -144 -77 -73 -202 -60 -269
27 -39 52 -46 152 -15 213 49 97 173 127 265 64z"/>
<path d="M3570 5575 l0 -285 199 0 198 0 18 -65 c17 -64 18 -65 51 -65 l34 0
0 110 0 110 -25 0 -25 0 0 240 0 240 -55 0 -55 0 0 -235 0 -235 -115 0 -115 0
0 235 0 235 -55 0 -55 0 0 -285z"/>
<path d="M4160 5575 l0 -285 58 0 57 1 87 142 c47 78 101 168 120 199 18 32
35 58 38 58 3 0 4 -90 2 -200 l-4 -200 56 0 56 0 0 285 0 285 -54 0 -54 0 -75
-122 c-41 -68 -98 -161 -126 -207 l-51 -84 0 206 0 207 -55 0 -55 0 0 -285z"/>
<path d="M4987 5853 c-4 -3 -7 -17 -7 -29 0 -18 -7 -25 -27 -29 -168 -35 -230
-99 -221 -229 7 -106 72 -174 193 -201 46 -11 50 -14 53 -43 l3 -32 60 0 c59
0 59 0 59 30 0 24 5 31 28 36 153 33 222 103 222 225 -1 112 -57 178 -179 207
-67 15 -71 18 -71 44 0 27 -2 28 -53 28 -30 0 -57 -3 -60 -7z m-7 -268 c0 -69
-1 -128 -2 -132 -5 -13 -51 -3 -86 19 -58 36 -78 107 -47 168 17 32 76 69 113
70 22 0 22 -2 22 -125z m197 108 c68 -32 93 -115 53 -180 -20 -33 -54 -55
-102 -67 l-28 -6 0 135 c0 130 1 135 21 135 12 0 37 -8 56 -17z"/>
<path d="M5450 5576 l0 -286 49 0 48 0 7 53 c3 28 6 75 6 102 l0 50 80 3 c89
3 124 13 158 45 61 57 76 165 32 231 -42 62 -94 80 -247 84 l-133 4 0 -286z
m258 167 c32 -20 48 -58 36 -90 -15 -42 -52 -61 -124 -65 l-65 -3 -3 78 c-2
43 -1 84 1 91 7 17 124 9 155 -11z"/>
<path d="M6610 5575 l0 -285 128 0 c139 0 195 11 230 43 75 69 68 187 -13 237
l-37 23 25 21 c36 30 47 58 47 114 0 100 -64 132 -262 132 l-118 0 0 -285z
m261 166 c26 -31 24 -57 -6 -86 -21 -22 -33 -25 -90 -25 l-65 0 0 63 c0 35 3
67 8 71 4 4 36 6 71 4 52 -3 67 -8 82 -27z m5 -220 c39 -24 51 -64 29 -98 -22
-32 -54 -43 -131 -43 l-64 0 0 80 0 80 68 0 c48 0 76 -5 98 -19z"/>
<path d="M7271 5838 c-5 -13 -53 -135 -106 -273 -53 -137 -99 -256 -102 -262
-4 -10 11 -13 54 -13 l58 0 20 58 20 57 117 3 117 3 22 -61 22 -60 58 0 c33 0
59 1 59 3 0 2 -116 308 -198 525 l-16 42 -58 0 c-51 0 -60 -3 -67 -22z m109
-217 c22 -61 40 -114 40 -116 0 -3 -38 -5 -85 -5 -47 0 -85 2 -85 4 0 12 83
236 86 233 2 -2 22 -54 44 -116z"/>
<path d="M7821 5850 c-60 -9 -95 -31 -128 -80 -25 -36 -31 -108 -12 -157 13
-35 57 -82 87 -94 27 -10 30 -3 -55 -125 -35 -51 -63 -95 -63 -98 0 -3 26 -6
58 -6 l57 1 64 105 c64 104 65 105 100 102 l36 -3 0 -102 0 -103 53 0 52 0 0
285 0 285 -97 -1 c-54 -1 -122 -5 -152 -9z m147 -172 l3 -88 -61 0 c-73 0
-113 18 -130 60 -21 50 4 91 70 114 8 3 38 4 65 3 l50 -2 3 -87z"/>
<path d="M2408 5042 l-227 -2 -3 -128 -3 -127 -133 -3 -133 -3 3 -447 c3 -439
3 -448 25 -488 27 -51 69 -87 125 -108 38 -15 99 -16 528 -14 475 3 486 3 525
25 50 26 87 66 111 118 18 38 19 74 19 609 l0 569 -305 1 c-168 0 -407 0 -532
-2z m497 -987 c31 -30 32 -62 3 -92 -27 -29 -71 -30 -98 -1 -27 29 -25 64 5
93 31 32 59 32 90 0z"/>
<path d="M3726 4912 c-6 -10 -216 -552 -216 -558 0 -2 26 -4 58 -4 l59 0 18
60 18 60 109 0 c59 0 111 1 116 3 4 1 18 -26 31 -60 l25 -63 59 0 c52 0 58 2
52 18 -3 9 -52 137 -108 285 l-101 267 -57 0 c-32 0 -60 -4 -63 -8z m103 -229
c22 -61 37 -114 34 -117 -9 -9 -151 -7 -157 2 -3 6 26 100 69 221 8 20 10 15
54 -106z"/>
<path d="M4130 4635 l0 -285 50 0 50 0 2 238 3 237 105 0 105 0 3 -237 2 -238
55 0 55 0 -2 283 -3 282 -212 3 -213 2 0 -285z"/>
<path d="M4640 4875 l0 -44 78 -3 77 -3 3 -237 2 -238 55 0 55 0 0 241 0 241
80 -4 80 -3 0 48 0 47 -215 0 -215 0 0 -45z"/>
<path d="M5150 4635 l0 -285 185 0 185 0 0 49 0 50 -132 -1 -133 -2 0 75 0 74
133 3 132 3 0 39 0 39 -132 3 -133 3 0 70 0 70 130 2 130 1 0 44 0 43 -182 3
-183 2 0 -285z"/>
<path d="M5623 4904 c-11 -28 4 -218 19 -255 9 -20 31 -47 49 -60 30 -21 45
-24 124 -24 50 1 100 5 113 9 l22 8 0 -116 0 -116 55 0 55 0 0 285 0 285 -55
0 -55 0 0 -124 0 -124 -45 -17 c-77 -30 -146 -3 -165 63 -5 20 -10 74 -10 120
l0 82 -50 0 c-37 0 -52 -4 -57 -16z"/>
<path d="M6200 4635 l0 -285 55 0 55 0 0 125 c0 70 4 125 9 125 5 0 51 -56
103 -124 l93 -125 63 0 c35 -1 62 3 60 8 -1 5 -54 73 -116 151 l-112 141 112
125 c62 68 115 129 116 134 2 6 -20 10 -51 10 l-55 0 -104 -115 c-56 -63 -106
-115 -110 -115 -5 0 -8 52 -8 115 l0 115 -55 0 -55 0 0 -285z"/>
<path d="M6906 4912 c-12 -20 -216 -547 -216 -559 0 -2 25 -3 56 -1 l57 3 20
58 21 57 117 0 116 0 22 -60 22 -60 59 0 60 0 -11 28 c-6 15 -51 135 -101 267
-50 132 -94 248 -99 258 -8 13 -22 17 -64 17 -29 0 -56 -3 -59 -8z m102 -229
c22 -61 38 -114 34 -117 -3 -3 -41 -6 -84 -6 -56 0 -78 4 -78 13 0 6 16 55 35
107 20 52 38 101 40 109 8 20 10 16 53 -106z"/>
</g>
</svg>
